<svg version="1.1" id="Layer_1" xmlns="http://www.w3.org/2000/svg" xmlns:xlink="http://www.w3.org/1999/xlink" x="0px" y="0px"
	 width="100%" viewBox="0 0 1080 1080" enable-background="new 0 0 1080 1080" xml:space="preserve">
<path fill="#0E1010" opacity="1.000000" stroke="none" 
	d="
M494.000000,1081.000000 
	C329.352264,1081.000000 165.204559,1081.000000 1.028416,1081.000000 
	C1.028416,721.060486 1.028416,361.120972 1.028416,1.090729 
	C360.897980,1.090729 720.795959,1.090729 1080.846924,1.090729 
	C1080.846924,360.999939 1080.846924,720.999939 1080.846924,1081.000000 
	C885.453857,1081.000000 689.976929,1081.000000 494.000000,1081.000000 
M386.499939,764.834106 
	C401.664673,764.833984 416.864319,765.471680 431.983765,764.644165 
	C445.549561,763.901733 459.232941,762.506104 472.491028,759.659607 
	C488.675171,756.184753 502.944427,748.240479 514.464478,735.946350 
	C529.572327,719.823303 533.883545,700.010681 533.894287,678.797607 
	C533.935974,596.639282 534.086426,514.480225 533.738708,432.323395 
	C533.680603,418.582275 532.454529,404.638458 529.856384,391.156769 
	C523.480469,358.071167 504.423645,335.400238 471.170715,326.927368 
	C457.072418,323.335144 442.371582,320.524719 427.895355,320.280701 
	C373.582611,319.364990 319.249481,319.652069 264.923981,319.510345 
	C263.667389,319.507080 262.410126,319.763367 261.267731,319.886292 
	C261.267731,468.336517 261.267731,616.402588 261.267731,764.834106 
	C302.902802,764.834106 344.201355,764.834106 386.499939,764.834106 
M562.506226,409.165771 
	C580.456665,409.165771 598.407166,409.165771 616.911499,409.165771 
	C616.911499,527.936279 616.911499,646.159302 616.911499,764.579773 
	C655.219116,764.579773 692.967102,764.579773 731.323181,764.579773 
	C731.323181,646.104614 731.323181,527.881226 731.323181,409.049194 
	C754.309326,409.049194 776.695190,409.049194 799.091858,409.049194 
	C799.091858,378.979065 799.091858,349.520294 799.091858,319.835266 
	C715.634949,319.835266 632.411743,319.835266 549.215027,319.835266 
	C549.215027,349.752441 549.215027,379.325897 549.215027,409.165771 
	C553.543884,409.165771 557.526123,409.165771 562.506226,409.165771 
z"/>
<path fill="#FEC705" opacity="1.000000" stroke="none" 
	d="
M385.999939,764.834106 
	C344.201355,764.834106 302.902802,764.834106 261.267731,764.834106 
	C261.267731,616.402588 261.267731,468.336517 261.267731,319.886292 
	C262.410126,319.763367 263.667389,319.507080 264.923981,319.510345 
	C319.249481,319.652069 373.582611,319.364990 427.895355,320.280701 
	C442.371582,320.524719 457.072418,323.335144 471.170715,326.927368 
	C504.423645,335.400238 523.480469,358.071167 529.856384,391.156769 
	C532.454529,404.638458 533.680603,418.582275 533.738708,432.323395 
	C534.086426,514.480225 533.935974,596.639282 533.894287,678.797607 
	C533.883545,700.010681 529.572327,719.823303 514.464478,735.946350 
	C502.944427,748.240479 488.675171,756.184753 472.491028,759.659607 
	C459.232941,762.506104 445.549561,763.901733 431.983765,764.644165 
	C416.864319,765.471680 401.664673,764.833984 385.999939,764.834106 
M419.066406,498.500000 
	C419.066406,475.342407 418.997345,452.184540 419.100159,429.027405 
	C419.141449,419.722748 416.742889,411.332520 411.173737,403.818878 
	C401.795349,391.166016 388.469666,395.092285 376.019318,394.626831 
	C376.019318,493.330750 376.019318,591.363647 376.019318,689.653137 
	C382.656006,689.653137 388.961578,689.899597 395.239624,689.589478 
	C402.760254,689.218018 408.365021,685.239075 412.468994,679.091858 
	C417.447937,671.634094 419.120331,663.325073 419.106323,654.439575 
	C419.024963,602.793152 419.066467,551.146545 419.066406,498.500000 
z"/>
<path fill="#FEC805" opacity="1.000000" stroke="none" 
	d="
M562.007324,409.165771 
	C557.526123,409.165771 553.543884,409.165771 549.215027,409.165771 
	C549.215027,379.325897 549.215027,349.752441 549.215027,319.835266 
	C632.411743,319.835266 715.634949,319.835266 799.091858,319.835266 
	C799.091858,349.520294 799.091858,378.979065 799.091858,409.049194 
	C776.695190,409.049194 754.309326,409.049194 731.323181,409.049194 
	C731.323181,527.881226 731.323181,646.104614 731.323181,764.579773 
	C692.967102,764.579773 655.219116,764.579773 616.911499,764.579773 
	C616.911499,646.159302 616.911499,527.936279 616.911499,409.165771 
	C598.407166,409.165771 580.456665,409.165771 562.007324,409.165771 
z"/>
<path fill="#0E1010" opacity="1.000000" stroke="none" 
	d="
M419.066406,499.000000 
	C419.066467,551.146545 419.024963,602.793152 419.106323,654.439575 
	C419.120331,663.325073 417.447937,671.634094 412.468994,679.091858 
	C408.365021,685.239075 402.760254,689.218018 395.239624,689.589478 
	C388.961578,689.899597 382.656006,689.653137 376.019318,689.653137 
	C376.019318,591.363647 376.019318,493.330750 376.019318,394.626831 
	C388.469666,395.092285 401.795349,391.166016 411.173737,403.818878 
	C416.742889,411.332520 419.141449,419.722748 419.100159,429.027405 
	C418.997345,452.184540 419.066406,475.342407 419.066406,499.000000 
z"/>
</svg>